 http://img576.imageshack.us/img576/3198/iamnumberfouri.jpg

Country.......: USA
Genre.........: Fantasy, Sci-Fi, Action, Thriller
Date release..: 17.02.2011 [World]
Director......: D.J. Caruso
Writers.......: Alfred Gough, Miles Millar
Duration......: 110 min.
More..........: http://www.imdb.com/title/tt1464540
Trailer.......: http://www.imdb.com/video/imdb/vi2997656345
Trailer.......:

Pilot :
John is an extraordinary teen, masking his true identity and passing as a typical high school student to elude a deadly enemy seeking to destroy him. Three like him have already been killed ... he is Number Four. 

Cats :
Alex Pettyfer   	 ...  	John
Timothy Olyphant 	... 	Henri
Teresa Palmer 	... 	Number 6
Dianna Agron 	... 	Sarah
Callan McAuliffe 	... 	Sam
Kevin Durand 	... 	Mogadorian Commander
Jake Abel 	... 	Mark
Jeff Hochendoner 	... 	Sherriff James
Patrick Sebes 	... 	Kevin
Greg Townley 	... 	Number 3
Reuben Langdon 	... 	Number 3's Guardian
Emily Wickersham 	... 	Nicole
Molly McGinnis 	... 	Receptionist
Brian Howe 	... 	Frank
Andy Owen 	... 	Bret 

Data Technical :
!!! SAMPLE !!!
Audio.....: English
Subtitles.: None
Format                           : AVI
Format/Info                      : Audio Video Interleave
File size                        : 700 MiB
Duration                         : 1h 49mn
Overall bit rate                 : 893 Kbps
Writing application              : VirtualDubMod 1.5.10.1 (build 2366/release)
Writing library                  : VirtualDubMod build 2366/release
Video
ID                               : 0
Format                           : MPEG-4 Visual
Format profile                   : Advanced Simple@L5
Format settings, BVOP            : Yes
Format settings, QPel            : No
Format settings, GMC             : No warppoints
Format settings, Matrix          : Default (MPEG)
Codec ID                         : XVID
Codec ID/Hint                    : XviD
Duration                         : 1h 49mn
Bit rate                         : 755 Kbps
Width                            : 640 pixels
Height                           : 352 pixels
Display aspect ratio             : 16:9
Frame rate                       : 23.976 fps
Color space                      : YUV
Chroma subsampling               : 4:2:0
Bit depth                        : 8 bits
Scan type                        : Progressive
Bits/(Pixel*Frame)               : 0.140
Stream size                      : 592 MiB (85%)
Writing library                  : XviD 1.2.1 (UTC 2008-12-04)
Audio
ID                               : 1
Format                           : MPEG Audio
Format version                   : Version 1
Format profile                   : Layer 3
Mode                             : Joint stereo
Mode extension                   : MS Stereo
Codec ID                         : 55
Codec ID/Hint                    : MP3
Duration                         : 1h 49mn
Bit rate mode                    : Constant
Bit rate                         : 128 Kbps
Channel(s)                       : 2 channels
Sampling rate                    : 48.0 KHz
Stream size                      : 100 MiB (14%)
Alignment                        : Aligned on interleaves
Interleave, duration             : 42 ms (1.00 video frame)
Interleave, preload duration     : 504 ms
Writing library                  : LAME3.98r
Encoding settings                : -m j -V 4 -q 2 -lowpass 17 -b 128

Screen : 
http://img689.imageshack.us/img689/2289/iamnumberfour2011s1.jpg 
http://img594.imageshack.us/img594/193/iamnumberfour2011s2.jpg 
http://img819.imageshack.us/img819/6937/iamnumberfour2011s3.jpg 
http://img685.imageshack.us/img685/4848/iamnumberfour2011s4.jpg 
http://img694.imageshack.us/img694/2849/iamnumberfour2011s5.jpg